<svg xmlns="http://www.w3.org/2000/svg" width="7" height="7" viewBox="0 0 7 7">
  <g fill="#FFF" fill-rule="evenodd">
    <path fill-rule="nonzero" d="M3.41305374,0 C2.54204003,0 2.41903809,0.00500007873 2.05703239,0.0210003307 C1.68502653,0.0380005983 1.43002252,0.0970015273 1.20801902,0.184002897 C0.978015399,0.273004299 0.783012329,0.393006188 0.588009259,0.588009259 C0.393006188,0.783012329 0.274004314,0.978015399 0.184002897,1.20801902 C0.0980015431,1.43102253 0.0380005983,1.68502653 0.0210003307,2.05703239 C0.00400006298,2.43003826 0,2.54904014 0,3.50005511 C0,4.45007007 0.00400006298,4.56907194 0.0210003307,4.94307783 C0.0380005983,5.31508369 0.0970015273,5.5700877 0.184002897,5.7920912 C0.273004299,6.02209482 0.393006188,6.21709789 0.588009259,6.41210096 C0.783012329,6.60710403 0.978015399,6.72610591 1.20801902,6.81610732 C1.43102253,6.90210868 1.68502653,6.96210962 2.05703239,6.97910989 C2.43003826,6.99611016 2.54904014,7.00011022 3.50005511,7.00011022 C4.45007007,7.00011022 4.56907194,6.99611016 4.94307783,6.97910989 C5.31508369,6.96210962 5.5700877,6.90310869 5.7920912,6.81610732 C6.02209482,6.72710592 6.21709789,6.60710403 6.41210096,6.41210096 C6.60710403,6.21709789 6.72610591,6.02209482 6.81610732,5.7920912 C6.90210868,5.56908769 6.96210962,5.31508369 6.97910989,4.94307783 C6.99511014,4.58107213 7.00011022,4.45807019 7.00011022,3.58705648 L7.00011022,3.41405376 C7.00011022,2.54304004 6.99511014,2.4200381 6.97910989,2.0580324 C6.96210962,1.68602655 6.90310869,1.43102253 6.81610732,1.20901904 C6.72710592,0.979015415 6.60710403,0.784012345 6.41210096,0.589009274 C6.21709789,0.394006204 6.02209482,0.27500433 5.7920912,0.185002913 C5.56908769,0.0990015588 5.31508369,0.0390006141 4.94307783,0.0220003464 C4.58107213,0.00600009447 4.45807019,0.00100001575 3.58705648,0.00100001575 L3.41405376,0.00100001575 L3.41305374,0 Z M3.50005511,0.63000992 C4.43406982,0.63000992 4.54507156,0.634009983 4.91407737,0.650010235 C5.25508274,0.666010487 5.44008566,0.723011384 5.56408761,0.770012124 C5.72709018,0.833013116 5.84409202,0.909014313 5.96609394,1.03201625 C6.08809586,1.15401817 6.16409706,1.27102001 6.22809806,1.43402258 C6.27609882,1.55702452 6.33309972,1.74302744 6.34809995,2.08403281 C6.36510022,2.45303862 6.36810027,2.56404037 6.36810027,3.49805508 C6.36810027,4.43206979 6.36410021,4.54307153 6.34809995,4.91207734 C6.3320997,5.25308271 6.2750988,5.43808563 6.22809806,5.56208758 C6.16509707,5.72509014 6.08909588,5.84209199 5.96609394,5.96409391 C5.84409202,6.08609583 5.72709018,6.16209703 5.56408761,6.22609803 C5.44108567,6.27409879 5.25508274,6.33109969 4.91407737,6.34609992 C4.54507156,6.36310019 4.43406982,6.36610024 3.50005511,6.36610024 C2.5660404,6.36610024 2.45503866,6.36210017 2.08603285,6.34609992 C1.74502748,6.33009967 1.56002456,6.27309877 1.43602261,6.22609803 C1.27302004,6.16309704 1.1560182,6.08709584 1.03401628,5.96409391 C0.91201436,5.84209199 0.836013163,5.72509014 0.772012156,5.56208758 C0.7240114,5.43908564 0.667010502,5.25308271 0.652010266,4.91207734 C0.635009999,4.54307153 0.632009951,4.43206979 0.632009951,3.49805508 C0.632009951,2.56404037 0.636010014,2.45303862 0.652010266,2.08403281 C0.668010518,1.74302744 0.725011416,1.55802453 0.772012156,1.43402258 C0.835013148,1.27102001 0.911014344,1.15401817 1.03401628,1.03201625 C1.1560182,0.910014329 1.27302004,0.834013132 1.43602261,0.770012124 C1.55902455,0.722011368 1.74502748,0.665010471 2.08603285,0.650010235 C2.45503866,0.633009967 2.5660404,0.63000992 3.50005511,0.63000992 Z"/>
    <path fill-rule="nonzero" d="M3.50005511,4.66607347 C2.85604497,4.66607347 2.33403675,4.14406525 2.33403675,3.50005511 C2.33403675,2.85604497 2.85604497,2.33403675 3.50005511,2.33403675 C4.14406525,2.33403675 4.66607347,2.85604497 4.66607347,3.50005511 C4.66607347,4.14406525 4.14406525,4.66607347 3.50005511,4.66607347 Z M3.50005511,1.70302682 C2.50803949,1.70302682 1.70302682,2.50703947 1.70302682,3.50005511 C1.70302682,4.49207073 2.50703947,5.29708341 3.50005511,5.29708341 C4.49207073,5.29708341 5.29708341,4.49307075 5.29708341,3.50005511 C5.29708341,2.50803949 4.49307075,1.70302682 3.50005511,1.70302682 Z"/>
    <path d="M5.78709112,1.6320257 C5.78709112,1.86402935 5.59908816,2.05203231 5.36708451,2.05203231 C5.13508085,2.05203231 4.94707789,1.86402935 4.94707789,1.6320257 C4.94707789,1.40002204 5.13508085,1.21201908 5.36708451,1.21201908 C5.59908816,1.21201908 5.78709112,1.40002204 5.78709112,1.6320257 Z"/>
  </g>
</svg>
