<svg xmlns="http://www.w3.org/2000/svg" width="24" height="16" viewBox="0 0 24 16">
  <path fill="#FEFEFE" d="M23.4991817,2.49941929 C24,4.28339144 24,8 24,8 C24,8 24,11.7166086 23.4991817,13.5005807 C23.2242226,14.485482 22.4091653,15.2659697 21.3780687,15.5261323 C19.502455,16 12,16 12,16 C12,16 4.49754496,16 2.62193127,15.5261323 C1.59083474,15.2566782 0.775777389,14.485482 0.500818314,13.5005807 C0,11.7166086 0,8 0,8 C0,8 0,4.28339144 0.500818314,2.49941929 C0.775777389,1.51451804 1.59083474,0.734030172 2.62193127,0.473867579 C4.49754496,0 12,0 12,0 C12,0 19.502455,0 21.3780687,0.473867579 C22.4091653,0.743321693 23.2242226,1.51451804 23.4991817,2.49941929 Z M10.4435398,5.0954772 L10.4435398,10.9045228 L15.5564602,8 L10.4435398,5.0954772 Z"/>
</svg>
