<svg xmlns="http://www.w3.org/2000/svg" width="14" height="14" viewBox="0 0 14 14">
  <path fill="#FEFEFE" fill-rule="evenodd" d="M14,7.0425863 C14,3.15336729 10.865701,0 7,0 C3.13429898,0 0,3.15336729 0,7.0425863 C0,10.557442 2.55941499,13.4711375 5.90634229,14 L5.90634229,9.07880588 L4.12853326,9.07880588 L4.12853326,7.0425863 L5.90634229,7.0425863 L5.90634229,5.49066213 C5.90634229,3.72580645 6.95176487,2.75028296 8.55041485,2.75028296 C9.31627057,2.75028296 10.1175643,2.88794567 10.1175643,2.88794567 L10.1175643,4.62110922 L9.23456616,4.62110922 C8.36534945,4.62110922 8.09365771,5.16383701 8.09365771,5.72142048 L8.09365771,7.0425863 L10.0348756,7.0425863 L9.72479258,9.07880588 L8.09365771,9.07880588 L8.09365771,14 C11.440585,13.4721279 14,10.5584323 14,7.0425863 Z"/>
</svg>
