<svg xmlns="http://www.w3.org/2000/svg" width="168" height="168" viewBox="0 0 168 168">
  <path fill="#FFF" fill-rule="evenodd" d="M206.28,131.24 C179.286,115.209 134.76,113.735 108.991,121.556 C104.852,122.812 100.476,120.476 99.223,116.338 C97.969,112.197 100.302,107.824 104.443,106.566 C134.025,97.587 183.199,99.321 214.275,117.768 C217.998,119.978 219.218,124.785 217.012,128.501 C214.804,132.223 209.993,133.45 206.28,131.24 M205.396,154.984 C203.502,158.057 199.484,159.021 196.415,157.134 C173.911,143.301 139.593,139.293 112.968,147.375 C109.516,148.418 105.869,146.472 104.82,143.025 C103.78,139.573 105.727,135.933 109.174,134.883 C139.589,125.653 177.4,130.123 203.248,146.008 C206.317,147.898 207.283,151.918 205.396,154.984 M195.149,177.787 C193.644,180.255 190.431,181.028 187.972,179.524 C168.307,167.505 143.555,164.791 114.405,171.449 C111.596,172.093 108.796,170.333 108.156,167.525 C107.512,164.716 109.266,161.916 112.081,161.275 C143.981,153.983 171.344,157.121 193.417,170.609 C195.878,172.112 196.653,175.327 195.149,177.787 M156.743,57 C110.494,57 73,94.493 73,140.742 C73,186.996 110.494,224.487 156.743,224.487 C202.994,224.487 240.487,186.996 240.487,140.742 C240.487,94.493 202.994,57 156.743,57" transform="translate(-73 -57)"/>
</svg>
